<svg width="46" height="45" viewBox="0 0 46 45" fill="none" xmlns="http://www.w3.org/2000/svg">
<path d="M22.9167 0C19.9072 0 16.9272 0.592757 14.1468 1.74443C11.3665 2.8961 8.84014 4.58413 6.71214 6.71214C2.41443 11.0098 0 16.8388 0 22.9167C0 33.0458 6.57708 41.6396 15.675 44.6875C16.8208 44.8708 17.1875 44.1604 17.1875 43.5417V39.6688C10.8396 41.0438 9.4875 36.5979 9.4875 36.5979C8.43333 33.9396 6.94375 33.2292 6.94375 33.2292C4.85833 31.8083 7.10417 31.8542 7.10417 31.8542C9.39583 32.0146 10.6104 34.2146 10.6104 34.2146C12.6042 37.6979 15.9729 36.6667 17.2792 36.1167C17.4854 34.6271 18.0812 33.6188 18.7229 33.0458C13.6354 32.4729 8.29583 30.5021 8.29583 21.7708C8.29583 19.2271 9.16667 17.1875 10.6562 15.5604C10.4271 14.9875 9.625 12.6042 10.8854 9.51042C10.8854 9.51042 12.8104 8.89167 17.1875 11.8479C18.9979 11.3438 20.9687 11.0917 22.9167 11.0917C24.8646 11.0917 26.8354 11.3438 28.6458 11.8479C33.0229 8.89167 34.9479 9.51042 34.9479 9.51042C36.2083 12.6042 35.4062 14.9875 35.1771 15.5604C36.6667 17.1875 37.5375 19.2271 37.5375 21.7708C37.5375 30.525 32.175 32.45 27.0646 33.0229C27.8896 33.7333 28.6458 35.1313 28.6458 37.2625V43.5417C28.6458 44.1604 29.0125 44.8938 30.1812 44.6875C39.2792 41.6167 45.8333 33.0458 45.8333 22.9167C45.8333 19.9072 45.2406 16.9272 44.0889 14.1468C42.9372 11.3665 41.2492 8.84015 39.1212 6.71214C36.9932 4.58413 34.4669 2.8961 31.6865 1.74443C28.9061 0.592757 25.9261 0 22.9167 0Z" fill="black"/>
</svg>
